<?xml version="1.0" encoding="UTF-8" standalone="no"?>
<!-- Created with Inkscape (http://www.inkscape.org/) -->

<svg
   width="128mm"
   height="128mm"
   viewBox="0 0 128 128"
   version="1.1"
   id="svg1"
   inkscape:version="1.4.2 (f4327f4, 2025-05-13)"
   sodipodi:docname="icon.svg"
   xmlns:inkscape="http://www.inkscape.org/namespaces/inkscape"
   xmlns:sodipodi="http://sodipodi.sourceforge.net/DTD/sodipodi-0.dtd"
   xmlns="http://www.w3.org/2000/svg"
   xmlns:svg="http://www.w3.org/2000/svg">
  <sodipodi:namedview
     id="namedview1"
     pagecolor="#ffffff"
     bordercolor="#000000"
     borderopacity="0.25"
     inkscape:showpageshadow="2"
     inkscape:pageopacity="0.0"
     inkscape:pagecheckerboard="0"
     inkscape:deskcolor="#d1d1d1"
     inkscape:document-units="mm"
     inkscape:zoom="0.75811588"
     inkscape:cx="3.9571787"
     inkscape:cy="288.21451"
     inkscape:window-width="1920"
     inkscape:window-height="1111"
     inkscape:window-x="3741"
     inkscape:window-y="516"
     inkscape:window-maximized="1"
     inkscape:current-layer="layer2" />
  <defs
     id="defs1" />
  <g
     inkscape:groupmode="layer"
     id="layer2"
     inkscape:label="Layer 2"
     transform="translate(-103.98125,-72.23125)">
    <g
       id="g37"
       transform="matrix(0.73323184,0,0,0.75377143,-119.74438,41.275932)">
      <path
         class="cls-5"
         d="m 369.72,210.88 c -10.09,0 -18.63,-6.97 -20.32,-16.57 -0.17,-0.95 -0.55,-2.58 -0.72,-3.1 -1.3,-3.48 -1.59,-7.09 -0.98,-10.53 -2.81,-1.7 -5.19,-3.56 -7.13,-5.06 -0.74,-0.58 -1.58,-1.23 -1.98,-1.5 -7.22,-4.84 -11.07,-11.92 -10.83,-19.93 l 0.02,-0.41 c 0.05,-0.84 0.12,-1.71 0.19,-2.59 -4.81,0.05 -9.69,-1.19 -13.22,-3.55 -4.55,-3.05 -11.77,-10.07 -9.02,-22.88 0.39,-1.81 1.43,-6.63 12.9,-18.48 7.1,-7.33 13.14,-12.21 19.61,-12.98 -0.09,-0.33 -0.17,-0.66 -0.26,-0.96 -1.24,-4.63 1.89,-11.02 -0.5,-18.19 -3.59,-10.75 10.82,-18.2 20.29,-21.01 5.88,-1.75 15.11,-1.95 29.05,-1.71 l 1.51,0.03 c 2.09,0.03 4.99,0 8.07,-0.01 6.42,-0.05 13.71,-0.1 18.67,0.28 15.08,1.18 39.24,9.26 48.84,18.11 0.99,0.81 1.86,1.63 2.64,2.49 9.41,10.34 4.84,22.76 1.5,31.83 -1.3,3.54 -2.65,7.21 -3.31,10.64 l -0.03,0.15 -1.25,6.12 c -0.1,0.49 -0.2,0.98 -0.3,1.47 7.84,1.54 14.37,7.43 16.1,15.46 2.31,10.74 -4.87,21.29 -16.01,23.52 -3.16,0.63 -6.3,0.93 -9.35,0.9 -0.79,3.07 -1.59,6.13 -2.39,9.15 l -0.2,0.68 c -1.08,3.3 -2.58,5.94 -4.35,8.03 4.06,6.17 4.44,14.3 0.27,20.97 -3.71,5.93 -10.47,9.61 -17.66,9.61 -3.75,0 -7.43,-0.99 -10.65,-2.86 -1.59,-0.93 -3.74,-2.05 -4.39,-2.32 -8.48,-3.48 -13.59,-11.63 -13.11,-20.25 l -3.48,-0.17 h -3.16 c -1.35,2.23 -2.86,4.21 -4.41,5.95 -0.04,4.01 -1.35,7.92 -3.81,11.26 -3.19,4.33 -7.93,7.21 -13.36,8.1 -1.16,0.19 -2.32,0.28 -3.46,0.28 z m -6.61,-18.81 z m 0,0 z m 13.23,-2.21 c 0,0 0,0.02 0,0.03 0,0 0,-0.02 0,-0.03 z m 41.36,-30.03 8.57,0.42 c 1.41,-5.41 2.79,-10.9 4.12,-16.38 l 2.1,-8.72 -0.02,-0.03 1.25,-5.6 c 1.04,-4.65 2.02,-9.21 2.9,-13.55 l 1.24,-6.05 c 1.06,-5.45 2.84,-10.3 4.42,-14.58 0.76,-2.08 1.83,-4.96 2.29,-6.83 -4.11,-3.31 -20.95,-9.65 -31.71,-10.49 -3.75,-0.29 -10.68,-0.24 -16.25,-0.2 -3.24,0.02 -6.3,0.05 -8.72,0.01 l -1.56,-0.03 c -11.2,-0.19 -18.09,0 -20.51,0.55 -0.28,0.16 -1.34,1.18 -2.23,3.63 0.06,0.79 0.54,2.57 0.86,3.78 1.21,4.53 3.04,11.38 0.65,19.15 -1.05,3.39 -2.04,6.9 -3.04,10.73 l -0.28,1.07 -0.46,1.01 c -1.02,2.24 -2.62,4.14 -4.61,5.53 1.69,4.87 1.13,10.14 0.87,12.58 l -0.12,0.88 c -1.08,6.12 -1.83,11.66 -2.23,16.49 0.83,0.6 1.66,1.24 2.51,1.91 1.41,1.1 4.2,3.27 5.79,3.95 l 35.02,-0.15 19.16,0.93 z m -87.14,-29.49 z m 33.03,-48.53"
         id="path26"
         style="fill:#4d1777" />
      <path
         class="cls-1"
         d="m 425.95,200.6 c -3.62,0 -7.17,-0.99 -10.27,-2.86 -1.54,-0.93 -3.61,-2.05 -4.23,-2.32 -8.18,-3.48 -13.11,-11.63 -12.64,-20.25 L 395.46,175 h -3.05 c -1.3,2.23 -2.76,4.21 -4.25,5.95 -0.04,4.01 -1.3,7.92 -3.67,11.26 -3.08,4.34 -7.65,7.21 -12.89,8.1 -1.09,0.19 -2.22,0.28 -3.34,0.28 -9.73,0 -17.97,-6.97 -19.6,-16.56 -0.16,-0.95 -0.53,-2.59 -0.7,-3.1 -1.25,-3.48 -1.53,-7.09 -0.94,-10.52 -2.71,-1.7 -5.01,-3.56 -6.88,-5.07 -0.71,-0.58 -1.52,-1.23 -1.9,-1.5 -6.97,-4.84 -10.68,-11.92 -10.44,-19.93 l 0.02,-0.41 c 0.05,-0.85 0.11,-1.71 0.18,-2.59 -4.7,0.04 -9.35,-1.19 -12.75,-3.55 -4.39,-3.05 -11.36,-10.07 -8.7,-22.88 v 0 c 0.38,-1.82 1.38,-6.64 12.44,-18.48 6.85,-7.33 12.67,-12.21 18.92,-12.98 -0.08,-0.33 -0.17,-0.66 -0.25,-0.96 -1.19,-4.63 -2.83,-10.97 -0.48,-18.19 3.49,-10.74 10.44,-18.2 19.57,-21.01 5.68,-1.75 14.57,-1.95 28.02,-1.71 l 1.45,0.03 c 2.02,0.03 4.82,0.01 7.78,-0.01 6.2,-0.05 13.22,-0.1 18.01,0.28 14.54,1.18 37.86,9.26 47.12,18.11 0.95,0.8 1.79,1.62 2.54,2.48 9.08,10.34 4.67,22.77 1.45,31.84 -1.26,3.55 -2.56,7.21 -3.2,10.64 l -0.03,0.15 -1.21,6.12 c -0.1,0.49 -0.19,0.98 -0.29,1.47 7.56,1.54 13.87,7.44 15.53,15.46 2.23,10.74 -4.7,21.29 -15.44,23.52 -3.05,0.63 -6.08,0.93 -9.03,0.9 -0.76,3.07 -1.53,6.13 -2.31,9.15 l -0.19,0.68 c -1.04,3.3 -2.49,5.94 -4.2,8.03 3.92,6.17 4.29,14.29 0.26,20.97 -3.58,5.93 -10.11,9.62 -17.04,9.62 z m -64.09,-18.82 c 0,0 0,0 0,0.01 z m 12.77,-2.19 z m 33.65,-30.36 14.52,0.73 c 1.36,-5.41 2.69,-10.9 3.97,-16.38 l 2.03,-8.74 -0.02,-0.03 1.2,-5.58 c 1.01,-4.71 1.96,-9.27 2.8,-13.55 l 1.2,-6.05 c 1.02,-5.45 2.74,-10.3 4.26,-14.58 0.74,-2.08 1.76,-4.96 2.21,-6.83 -3.97,-3.31 -20.22,-9.65 -30.59,-10.49 -3.62,-0.29 -10.3,-0.24 -15.68,-0.2 -3.13,0.02 -6.08,0.05 -8.41,0.01 l -1.5,-0.03 c -10.8,-0.19 -17.46,0 -19.79,0.55 -0.27,0.16 -1.29,1.18 -2.15,3.63 0.06,0.79 0.52,2.57 0.83,3.78 1.17,4.53 2.94,11.38 0.63,19.15 -1.01,3.39 -1.97,6.9 -2.93,10.73 l -0.27,1.06 -0.44,1.01 c -0.98,2.24 -2.53,4.14 -4.45,5.53 1.63,4.87 1.09,10.14 0.84,12.58 l -0.12,0.88 c -1.05,6.12 -1.77,11.66 -2.15,16.49 0.8,0.6 1.6,1.24 2.42,1.91 1.36,1.1 4.05,3.28 5.58,3.95 l 33.78,-0.15 12.23,0.61 v 0 z m -77.82,-29.17 z m 31.87,-48.53"
         id="path27"
         style="fill:#ea348f" />
      <g
         id="g35">
        <path
           class="cls-5"
           d="m 448.81,138.97 c -5.54,0 -9.56,-1.78 -12.17,-3.52 -7.74,-5.16 -9.62,-13.92 -9.81,-14.9 L 440,118.01 v -0.07 c 0,0 0.6,2.75 2.49,4.93 1.36,1.56 3.82,3.51 9.51,2.33 3.63,-0.75 7.18,1.58 7.93,5.21 0.75,3.63 -1.58,7.18 -5.21,7.93 -2.14,0.44 -4.11,0.63 -5.92,0.63 z"
           id="path28"
           style="fill:#4d1777" />
        <path
           class="cls-5"
           d="m 450.66,70.72 c -5.21,-5.97 -23.52,-10.2 -35.13,-10.99 -5.78,-0.4 -10.35,-0.95 -16.12,-0.93 -5.34,0.01 -18.32,-0.11 -23.04,1.57 -5.23,1.86 -9.07,5.61 -10.74,10.96 -2.28,7.3 3.31,14.45 0.91,22.81 -2.4,8.36 -4.45,16.82 -6.15,25.4 -2.15,10.9 -3.52,20.24 -4.09,28.02 -0.16,3.51 1.24,6.38 4.18,8.6 2.94,2.22 4.67,3.66 10.15,4.46 l 56.49,2.83 c 3.65,0.38 5.32,-2.69 6.18,-5.42 4.37,-16.96 8.16,-33.55 11.37,-49.77 l 1.21,-6.12 c 2.44,-13.15 10.83,-24.52 4.78,-31.4 z"
           id="path29"
           style="fill:#4d1777" />
        <path
           class="cls-5"
           d="m 449.21,69.36 c -5.87,-6.1 -26.51,-13.73 -39.34,-14.76 -6.38,-0.52 -18.57,-0.13 -24.94,-0.23 -5.89,-0.09 -20.22,-0.49 -25.39,1.1 -5.73,1.76 -9.18,7.15 -10.92,12.49 -2.37,7.29 3.95,14.58 1.47,22.92 -2.48,8.34 -4.57,16.8 -6.26,25.37 -2.15,10.9 -3.47,20.25 -3.94,28.05 -0.1,3.52 1.49,6.43 4.79,8.72 3.29,2.29 8.9,8.03 14.97,8.95 l 58.71,-0.26 c 4.03,0.45 5.82,-2.59 6.71,-5.32 4.48,-16.94 8.32,-33.52 11.53,-49.74 l 1.21,-6.12 c 2.42,-13.16 18.21,-24.13 11.4,-31.17 z"
           id="path30"
           style="fill:#4d1777" />
        <path
           class="cls-5"
           d="m 367.18,187.42 c -3.21,0 -6.05,-2.31 -6.61,-5.58 v 0 c -0.22,-1.31 -0.77,-3.91 -1.27,-5.3 -1.22,-3.37 0.04,-7.06 3.06,-8.99 3,-1.91 9.62,-7.11 6.36,-13.91 -1.6,-3.34 -0.19,-7.35 3.15,-8.95 3.34,-1.6 7.35,-0.19 8.95,3.15 5.61,11.71 -0.06,22.05 -7.7,28.42 0.39,1.69 0.63,3.07 0.67,3.33 0.62,3.65 -1.84,7.12 -5.49,7.74 -0.38,0.06 -0.76,0.1 -1.13,0.1 z m 2.41,-8.57 z"
           id="path31"
           style="fill:#4d1777" />
        <path
           class="cls-5"
           d="m 424.89,187.41 c -1.18,0 -2.37,-0.31 -3.46,-0.96 -1.45,-0.87 -4.32,-2.5 -5.88,-3.17 -3.43,-1.46 -5.3,-5.15 -4.45,-8.77 0.96,-4.1 1.59,-11.27 -5.04,-13.32 -3.54,-1.09 -5.52,-4.85 -4.43,-8.39 1.09,-3.54 4.85,-5.52 8.39,-4.43 12.45,3.85 15.8,14.82 14.89,24.62 1.74,0.95 3.18,1.82 3.45,1.98 3.17,1.91 4.19,6.04 2.28,9.21 -1.26,2.09 -3.48,3.24 -5.75,3.24 z m -4.08,-16.47"
           id="path32"
           style="fill:#4d1777" />
        <path
           class="cls-2"
           d="M 445.96,73.53 C 441.24,68 424.6,64.15 414.04,63.45 c -5.26,-0.35 -9.42,-0.84 -14.67,-0.8 -4.86,0.04 -16.67,-0.03 -20.97,1.55 -4.76,1.75 -8.27,5.25 -9.82,10.23 -2.11,6.8 2.95,13.42 0.73,21.19 -2.22,7.78 -4.12,15.66 -5.7,23.63 -2,10.14 -3.28,18.83 -3.83,26.06 -0.16,3.26 1.1,5.92 3.77,7.97 2.67,2.05 4.23,3.39 9.22,4.11 l 51.39,2.41 c 3.32,0.34 4.85,-2.52 5.65,-5.06 4.05,-15.78 7.56,-31.22 10.55,-46.31 l 1.13,-5.7 c 2.27,-12.24 9.95,-22.83 4.48,-29.21 z"
           id="path33"
           style="fill:#ffeea9" />
        <path
           class="cls-5"
           d="m 437.85,81.46 c -3.72,-4.36 -16.87,-7.41 -25.21,-7.96 -4.15,-0.27 -7.44,-0.66 -11.58,-0.63 -3.84,0.03 -13.16,-0.03 -16.56,1.22 -3.76,1.38 -6.53,4.14 -7.75,8.08 -1.66,5.37 2.33,10.6 0.58,16.74 -1.75,6.14 -3.25,12.36 -4.5,18.66 -1.58,8.01 -2.59,14.87 -3.03,20.58 -0.13,2.58 0.87,4.68 2.98,6.3 2.11,1.62 3.34,2.68 7.28,3.24 l 40.58,1.9 c 2.62,0.26 3.83,-1.99 4.46,-4 3.19,-12.46 5.97,-24.65 8.33,-36.57 l 0.89,-4.5 c 1.79,-9.66 7.86,-18.03 3.53,-23.07 z"
           id="path34"
           style="fill:#4d1777" />
        <ellipse
           class="cls-2"
           cx="422.09"
           cy="107.59"
           rx="8.4300003"
           ry="5.1799998"
           transform="rotate(-78.82,422.0785,107.59268)"
           id="ellipse34"
           style="fill:#ffeea9" />
        <ellipse
           class="cls-2"
           cx="395.07999"
           cy="106.13"
           rx="13.72"
           ry="8.4399996"
           transform="rotate(-78.82,395.06648,106.14052)"
           id="ellipse35"
           style="fill:#ffeea9" />
        <path
           class="cls-5"
           d="m 357.5,106.86 c 0.47,-0.71 0.8,-1.52 0.97,-2.41 0.7,-3.64 -1.68,-7.16 -5.31,-7.86 -1.33,-0.26 -13.3,-2.31 -23.67,4.82 -6.71,4.61 -10.99,11.8 -12.7,21.38 -0.65,3.65 1.78,7.13 5.42,7.78 3.65,0.65 7.13,-1.78 7.78,-5.42 1.06,-5.91 3.44,-10.18 7.08,-12.68 5.79,-3.97 13.46,-2.72 13.53,-2.7 2.75,0.53 5.44,-0.7 6.88,-2.91 z"
           id="path35"
           style="fill:#4d1777" />
      </g>
      <ellipse
         class="cls-5"
         cx="405.47"
         cy="122.48"
         rx="10.74"
         ry="3.9400001"
         transform="rotate(-10.23,405.3695,122.43387)"
         id="ellipse36"
         style="fill:#4d1777" />
      <path
         class="cls-3"
         d="m 419.54,82.4 c 1.35,0.26 2.64,0.56 3.87,0.88 2.13,0.55 3.96,1.36 5.5,2.41 1.54,1.05 2.43,2.69 2.69,4.89 0.08,0.54 0.26,0.85 0.54,0.93 0.33,0.09 0.67,-0.09 1.02,-0.52 0.35,-0.43 0.67,-0.94 0.95,-1.52 0.28,-0.58 0.47,-1.06 0.57,-1.42 0.36,-1.39 0.13,-2.6 -0.69,-3.62 -0.83,-1.02 -2.01,-1.91 -3.56,-2.66 -1.55,-0.75 -3.27,-1.37 -5.15,-1.86 -2.41,-0.63 -4.79,-1.06 -7.13,-1.3 -2.34,-0.24 -4.14,-0.35 -5.42,-0.33 -0.46,0.1 -0.74,0.33 -0.84,0.7 -0.07,0.29 -0.05,0.59 0.06,0.9 0.11,0.31 0.31,0.53 0.59,0.64 0.99,0.39 2,0.72 3.02,0.98 1.31,0.34 2.64,0.64 3.99,0.91 z"
         id="path36"
         style="fill:#ffeea4" />
      <path
         class="cls-3"
         d="m 406.96,78.01 c -0.94,-0.25 -2.26,-0.39 -3.95,-0.44 -1.35,0 -2.14,0.4 -2.35,1.22 -0.12,0.45 0,0.94 0.34,1.46 0.34,0.53 0.82,0.87 1.43,1.03 l 0.71,0.05 c 1.81,-0.09 3.2,-0.31 4.16,-0.65 0.96,-0.34 1.5,-0.71 1.6,-1.12 0.15,-0.57 -0.5,-1.09 -1.95,-1.56 z"
         id="path37"
         style="fill:#ffeea4" />
    </g>
  </g>
</svg>
